<?xml version="1.0" encoding="UTF-8" standalone="no"?>
<!-- Created with Inkscape (http://www.inkscape.org/) -->

<svg
   width="841mm"
   height="594mm"
   viewBox="0 0 841 594"
   version="1.1"
   id="svg1"
   xml:space="preserve"
   inkscape:version="1.3.2 (091e20e, 2023-11-25)"
   sodipodi:docname="pandion_black.svg"
   inkscape:export-filename="pandion_logo_5.svg"
   inkscape:export-xdpi="384"
   inkscape:export-ydpi="384"
   xmlns:inkscape="http://www.inkscape.org/namespaces/inkscape"
   xmlns:sodipodi="http://sodipodi.sourceforge.net/DTD/sodipodi-0.dtd"
   xmlns:xlink="http://www.w3.org/1999/xlink"
   xmlns="http://www.w3.org/2000/svg"
   xmlns:svg="http://www.w3.org/2000/svg"><sodipodi:namedview
     id="namedview1"
     pagecolor="#ffffff"
     bordercolor="#000000"
     borderopacity="0.25"
     inkscape:showpageshadow="2"
     inkscape:pageopacity="0.0"
     inkscape:pagecheckerboard="0"
     inkscape:deskcolor="#d1d1d1"
     inkscape:document-units="mm"
     inkscape:zoom="0.15756716"
     inkscape:cx="1497.774"
     inkscape:cy="1469.2148"
     inkscape:window-width="1296"
     inkscape:window-height="916"
     inkscape:window-x="222"
     inkscape:window-y="38"
     inkscape:window-maximized="0"
     inkscape:current-layer="layer4"
     inkscape:export-bgcolor="#ffffff00" /><defs
     id="defs1"><linearGradient
       id="linearGradient14"
       inkscape:collect="always"><stop
         style="stop-color:#279d5e;stop-opacity:1;"
         offset="0"
         id="stop14" /><stop
         style="stop-color:#ffac1d;stop-opacity:0.98233217;"
         offset="0.67647058"
         id="stop15" /></linearGradient><rect
       x="841.59308"
       y="657.79688"
       width="2727.8943"
       height="1348.6194"
       id="rect13" /><linearGradient
       inkscape:collect="always"
       xlink:href="#linearGradient14"
       id="linearGradient15"
       x1="211.57645"
       y1="552.44965"
       x2="606.18329"
       y2="265.31015"
       gradientUnits="userSpaceOnUse" /><clipPath
       clipPathUnits="userSpaceOnUse"
       id="clipPath17"><g
         id="g18"
         inkscape:label="g16"><path
           style="fill:#010101;stroke:none"
           d="m 128.19073,107.65838 c -2.69557,-2.40102 -4.44748,-6.68177 -6.0835,-9.877784 -3.60443,-7.04135 -6.99717,-14.096 -9.7738,-21.51944 -0.9589,-2.56367 -1.75076,-5.30054 -2.95533,-7.75948 -0.3703,-0.75589 -1.13659,-2.21575 -2.21167,-1.70347 -1.12844,0.53774 -1.4075,2.74303 -1.62125,3.8185 -0.84111,4.23196 0.86856,8.23473 0.42056,12.34722 l 3.175,7.05556 7.05555,15.522224 C 109.7004,98.991586 104.65042,90.837346 99.361499,83.316706 c -0.83265,-1.18399 -4.06445,-7.12385 -5.88834,-5.96673 -1.62569,1.03137 -0.79854,4.84875 -0.48589,6.31951 1.28371,6.03878 6.2944,10.81971 7.334021,16.580554 l 1.76389,2.46945 -6.411251,-6.935544 -3.00296,-1.10213 -1.20968,3.80433 2.15722,10.936114 c -6.47098,0.21054 -1.82765,8.55484 -2.68367,11.98056 -0.63471,2.54007 -2.31424,3.72499 -2.038,6.71666 0.11795,1.27735 0.70818,2.9462 0.46602,4.20176 -0.28604,1.48316 -1.62963,2.24956 -1.72578,3.91212 -0.12647,2.18684 1.12877,4.25644 0.98701,6.35 -0.12898,1.90499 -1.15476,3.22547 -0.90181,5.29167 0.18913,1.54478 1.60747,4.00553 1.42526,5.3815 -0.15565,1.17553 -1.56808,1.79024 -1.65228,3.08545 -0.13048,2.00722 1.43697,4.12496 1.943,5.99694 0.41756,1.54467 -0.99966,2.71223 -0.99926,4.23333 3.5e-4,1.35866 1.14595,2.53294 0.95462,3.88056 -0.19844,1.39771 -1.42472,2.44888 -1.64575,3.88055 -0.2283,1.47876 0.88156,2.48833 0.88004,3.88056 -0.001,1.25186 -1.02883,2.27137 -1.09209,3.52261 -0.0644,1.27382 1.25113,1.96928 1.20995,3.19405 -0.0881,2.62174 -1.53629,4.43827 0.99219,6.68889 v 0.35278 c -3.30005,1.13023 -1.44511,4.47076 -1.0665,6.70278 0.67566,3.98328 0.30974,8.00769 1.2731,12.00833 1.38666,5.7585 -0.59756,12.36647 1.53333,17.90401 0.37944,0.98603 1.35863,1.52516 1.70782,2.55845 1.30674,3.86678 1.37538,7.95929 3.36718,11.56135 1.04896,1.89703 4.361801,3.73274 4.892881,5.78464 0.30124,1.16389 -0.75383,2.24941 -0.44451,3.45266 0.38879,1.51239 2.09783,2.30311 2.34613,3.88055 0.45309,2.8784 -1.29758,5.34306 2.26557,7.05556 v 0.35277 c -10.175871,2.72023 -20.285291,5.67147 -30.691671,7.54444 -6.384656,1.14913 -12.957936,0.82534 -18.344446,4.80278 0.66655,2.76 1.94927,6.37266 1.92749,9.17223 -0.031,3.98429 -3.70101,7.98728 1.24752,10.58333 -0.71263,3.00158 0.35085,4.32751 3.175,5.29167 -0.57486,3.32791 0.12223,6.79172 4.23333,6.70277 1.44345,5.98999 4.55816,4.49721 9.524996,3.88056 3.01273,-3.13357 10.1523,-8.73052 14.46389,-9.525 l 2.11667,-1.41111 4.93889,-4.23334 h 0.35277 l 0.70556,0.70556 v -1.41111 l 5.644441,-3.175 1.41111,-1.05833 0.35278,-1.05834 5.29167,-2.46944 c -10e-6,-1.68715 3.27133,0.20438 2.46944,0.70555 1.13486,1.85241 0.38484,4.23241 1.42119,5.85977 0.73365,1.15204 2.59898,1.26941 2.75852,2.82521 0.19977,1.94803 -1.324,3.97411 -0.91597,5.77891 1.88921,8.35634 6.10158,15.89739 9.6445,23.63611 1.84208,4.02361 2.42556,9.92674 6.84732,11.99444 -0.27339,3.68036 4.58854,8.16419 6.39055,11.18817 0.69787,1.17111 0.49293,2.47771 1.46746,3.58305 1.12784,1.27922 3.23997,1.88354 4.12799,3.31708 0.77875,1.25716 0.22075,2.84309 1.22847,4.06268 0.91474,1.10703 2.59221,1.45473 3.35629,2.67714 0.70469,1.1274 0.12798,2.57331 0.92821,3.70877 0.68199,0.96768 1.97686,1.26155 2.60092,2.25141 0.94589,1.50039 0.18827,3.62521 1.07657,5.11963 0.88481,1.48854 2.88469,1.35825 4.07083,2.43977 1.05497,0.96192 0.76628,2.47845 1.38988,3.659 0.84579,1.60113 2.46505,2.17837 4.05449,2.79608 -0.71327,1.89898 1.19655,6.80615 2.64937,8.31504 0.74428,0.77303 2.01499,0.81976 2.63386,1.71436 1.45528,2.10364 1.35057,5.33404 2.94662,7.57112 0.9852,1.38088 2.7789,1.27305 3.73847,2.58838 1.44224,1.97697 1.6509,4.62952 3.12682,6.6154 0.94137,1.26664 2.75272,1.76936 3.40338,3.20222 1.37734,3.03306 1.86548,6.39224 4.00468,9.11861 1.37633,1.75411 3.46599,0.97548 4.72602,2.29361 2.00776,2.1003 2.65431,5.8263 4.41462,8.2222 1.3005,1.77009 3.94196,2.38417 4.93808,4.03356 1.89194,3.13258 1.76152,7.51388 3.55771,10.88383 0.6053,1.13563 1.6512,3.29889 3.23788,3.11294 1.5433,-0.18087 1.89749,-2.24956 2.08346,-3.46572 0.6041,-3.95049 1.14414,-8.01144 1.45848,-11.99444 h 0.35278 c 2.16226,7.6764 2.05012,15.80105 5.09894,23.28333 0.68587,1.68323 2.94011,6.53883 5.38612,5.74599 2.02274,-0.65565 0.88455,-5.89917 0.98648,-7.50988 0.5158,-8.15058 -0.88821,-16.51196 -0.88821,-24.69444 h 0.35278 c 1.19286,9.43103 3.26203,20.18843 7.87107,28.57499 1.26853,2.30822 2.94373,4.51338 5.18171,5.95855 0.68986,0.4455 2.12967,1.32227 2.7117,0.26407 1.44205,-2.62185 -1.81258,-9.79552 -2.43188,-12.57262 -2.39149,-10.7241 -5.34373,-22.12578 -5.57149,-33.1611 h 0.35278 c 4.4105,12.01076 6.26187,34.91371 23.28333,34.92499 -0.81336,-4.08743 -4.71369,-8.54323 -6.61568,-12.34722 -4.36082,-8.72164 -8.88873,-19.21601 -10.31765,-28.92777 h 0.35278 c 0.85158,2.95623 2.71126,5.51521 4.30001,8.11388 3.71715,6.08012 7.18776,11.98919 15.10276,11.99445 -0.98878,-3.55784 -4.57489,-7.01895 -6.48963,-10.23056 -4.4142,-7.40394 -8.62622,-15.01923 -12.05788,-22.93055 -2.85512,-6.5822 -4.70445,-13.4605 -7.36367,-20.10833 -2.18956,-5.4737 -5.41354,-10.70615 -7.41107,-16.19621 -4.32017,-11.87365 -7.3402,-24.39455 -14.11493,-35.30934 -2.94244,-4.74058 -7.48691,-8.89328 -10.86098,-13.40556 -9.19882,-12.30192 -17.40319,-26.25576 -21.16667,-41.275 -3.02947,-12.08991 11.75311,-20.93151 15.77592,-31.04444 0.71411,-1.79517 4.22463,-4.07158 3.7812,-5.97681 -0.54532,-2.34301 -3.81884,-0.83978 -5.35618,-1.04797 -2.47799,-0.33556 -4.43888,-1.69428 -7.05555,-1.28644 -3.4356,0.53547 -6.36046,3.00494 -9.87778,3.00922 -8.04419,0.01 -12.93302,-9.99114 -14.91493,-16.57022 -3.09218,-10.2647 -4.25247,-21.42487 -3.76841,-32.10277 0.20545,-4.53194 1.97311,-9.23884 1.71707,-13.75834 -0.51214,-9.04036 -3.20991,-17.09449 -5.39674,-25.75277 -0.96049,-3.80287 -0.87205,-8.08338 -1.7002,-11.99444 -1.66088,-7.84382 -3.96654,-15.29064 -5.06736,-23.28333 -1.25363,-9.10224 -1.6086,-18.368474 -2.23508,-27.516664 -0.28263,-4.12722 0.57593,-9.14216 -0.73713,-13.05278 -3.39064,1.76411 -5.1485,6.29152 -5.92264,9.87778 -1.91124,8.85407 0.28325,17.656034 0.98375,26.458334 h -0.35278 l -7.6114,-28.222224 -3.3247,-23.28333 c -4.53992,2.35683 -5.55896,8.05976 -6.05575,12.7 -0.8516,7.95438 1.30242,17.13508 3.76923,24.69444 1.10842,3.396694 3.16774,6.692794 3.69762,10.230564 m -13.75833,194.38053 0.35278,0.35277 -0.35278,-0.35277 m 1.76389,4.93888 0.35278,0.35278 z"
           id="path17" /><text
           xml:space="preserve"
           transform="matrix(0.46842699,0,0,0.46842699,-393.00134,51.834503)"
           id="text17"
           style="font-weight:300;font-size:481.991px;font-family:'Fira Sans';-inkscape-font-specification:'Fira Sans Light';text-align:center;letter-spacing:-16.945px;word-spacing:0px;white-space:pre;shape-inside:url(#rect13);display:inline;fill:#d3d3d3;stroke:#000000;stroke-width:1.00157"
           x="-209.06676"
           y="0"
           inkscape:label="text15"><tspan
             x="841.59375"
             y="1093.5971"
             id="tspan4"><tspan
               style="font-weight:normal;font-family:'Atkinson Hyperlegible';-inkscape-font-specification:'Atkinson Hyperlegible';text-align:start;fill:#1a1a1a"
               id="tspan3">Pandion</tspan></tspan></text></g></clipPath></defs><g
     inkscape:groupmode="layer"
     id="layer2"
     inkscape:label="pride"
     style="display:none"><g
       id="g1"
       transform="matrix(0.77113971,0,0,0.64077435,-297.24396,108.06961)"><path
         fill="#6d2380"
         d="M 0,0 H 1200 V 762 H 0 Z"
         id="path1-4" /><path
         fill="#2c58a4"
         d="M 0,0 H 1200 V 635 H 0 Z"
         id="path2" /><path
         fill="#78b82a"
         d="M 0,0 H 1200 V 508 H 0 Z"
         id="path3" /><path
         fill="#efe524"
         d="M 0,0 H 1200 V 381 H 0 Z"
         id="path4" /><path
         fill="#f28917"
         d="M 0,0 H 1200 V 254 H 0 Z"
         id="path5" /><path
         fill="#e22016"
         d="M 0,0 H 1200 V 127 H 0 Z"
         id="path6" /><path
         d="M 315,0 H 0 V 762 H 315 L 668,381 Z"
         id="path7" /><path
         fill="#945516"
         d="M 241,0 H 0 V 762 H 241 L 594,381 Z"
         id="path8" /><path
         fill="#7bcce5"
         d="M 168,0 H 0 V 762 H 168 L 521,381 Z"
         id="path9" /><path
         fill="#f4aec8"
         d="M 95,0 H 0 V 762 H 95 L 448,381 Z"
         id="path10" /><path
         fill="#ffffff"
         d="M 0,0 V 762 H 22 L 374,381 22,0 Z"
         id="path11" /><path
         fill="#fdd817"
         d="M 0,706 301,381 0,55 Z"
         id="path12" /><circle
         cx="111"
         cy="381"
         r="80"
         fill="none"
         stroke="#66338b"
         stroke-width="19"
         id="circle12" /></g></g><g
     inkscape:groupmode="layer"
     id="layer4"
     inkscape:label="gradient"><rect
       style="fill:url(#linearGradient15);stroke:#000000;stroke-width:0.264999;fill-opacity:1"
       id="rect14"
       width="846.30579"
       height="592.74988"
       x="1.6791781"
       y="3.3583565"
       clip-path="url(#clipPath17)"
       inkscape:export-filename="pandion_logo_colour_small.png"
       inkscape:export-xdpi="96"
       inkscape:export-ydpi="96"
       inkscape:label="rect14" /></g><g
     inkscape:label="Layer 1"
     inkscape:groupmode="layer"
     id="layer1" /><g
     inkscape:groupmode="layer"
     id="layer3"
     inkscape:label="Text" /></svg>
