<?xml version="1.0" encoding="UTF-8" standalone="no"?>
<!-- Created with Inkscape (http://www.inkscape.org/) -->

<svg
   width="420mm"
   height="594mm"
   viewBox="0 0 420 594"
   version="1.1"
   id="svg1"
   xml:space="preserve"
   inkscape:version="1.3.2 (091e20e, 2023-11-25)"
   sodipodi:docname="pandion_black.svg"
   xmlns:inkscape="http://www.inkscape.org/namespaces/inkscape"
   xmlns:sodipodi="http://sodipodi.sourceforge.net/DTD/sodipodi-0.dtd"
   xmlns="http://www.w3.org/2000/svg"
   xmlns:svg="http://www.w3.org/2000/svg"><sodipodi:namedview
     id="namedview1"
     pagecolor="#ffffff"
     bordercolor="#000000"
     borderopacity="0.25"
     inkscape:showpageshadow="2"
     inkscape:pageopacity="0.0"
     inkscape:pagecheckerboard="0"
     inkscape:deskcolor="#d1d1d1"
     inkscape:document-units="mm"
     inkscape:zoom="0.20675075"
     inkscape:cx="998.78718"
     inkscape:cy="1037.4811"
     inkscape:window-width="1328"
     inkscape:window-height="916"
     inkscape:window-x="190"
     inkscape:window-y="38"
     inkscape:window-maximized="0"
     inkscape:current-layer="layer2" /><defs
     id="defs1"><clipPath
       clipPathUnits="userSpaceOnUse"
       id="clipPath3"><path
         style="fill:#010101;stroke:none;stroke-width:1.42259"
         d="m 586.53644,138.24712 c -3.49557,-3.74706 -5.76741,-10.42765 -7.88897,-15.41538 -4.67416,-10.98881 -9.07381,-21.99838 -12.67449,-33.58349 -1.24348,-4.000894 -2.27035,-8.272083 -3.83242,-12.109533 -0.4802,-1.179652 -1.47391,-3.457926 -2.86805,-2.658459 -1.46334,0.839207 -1.82522,4.280806 -2.10241,5.959198 -1.09073,6.604447 1.12633,12.851217 0.54537,19.269218 l 4.11729,11.010986 9.14951,24.22416 c -8.42375,-10.22219 -14.97248,-22.94779 -21.83105,-34.68459 -1.07977,-1.847752 -5.27071,-11.11757 -7.6359,-9.311753 -2.10816,1.609567 -1.03553,7.567014 -0.63009,9.862303 1.66469,9.42419 8.16247,16.88536 9.51062,25.8758 l 2.28739,3.85385 -8.314,-10.82368 -3.89418,-1.72 -1.56869,5.93708 2.79744,17.06702 c -8.39145,0.32858 -2.37006,13.35079 -3.48013,18.69701 -0.82308,3.96406 -3.00107,5.81326 -2.64284,10.48211 0.15295,1.99345 0.91835,4.59788 0.60432,6.55732 -0.37093,2.31463 -2.11327,3.51069 -2.23796,6.1053 -0.164,3.41281 1.46377,6.64265 1.27994,9.90988 -0.16726,2.97295 -1.49747,5.03371 -1.16945,8.25825 0.24526,2.4108 2.08453,6.25107 1.84825,8.39843 -0.20185,1.83454 -2.03346,2.79387 -2.14265,4.81519 -0.1692,3.13249 1.86344,6.43746 2.51965,9.35889 0.54148,2.41063 -1.29634,4.23274 -1.29582,6.60659 3.4e-4,2.12034 1.48604,3.95293 1.23793,6.05605 -0.25733,2.18128 -1.84755,3.82175 -2.13418,6.05603 -0.29605,2.30777 1.14319,3.88332 1.14122,6.05606 -10e-4,1.95365 -1.33417,3.54473 -1.4162,5.49743 -0.0835,1.98792 1.62244,3.07326 1.56904,4.98467 -0.11425,4.0915 -1.99223,6.92639 1.28665,10.43874 v 0.55054 c -4.27944,1.76388 -1.87399,6.97714 -1.38301,10.46046 0.87618,6.21635 0.40166,12.4969 1.65093,18.74034 1.79819,8.98677 -0.7749,19.29925 1.9884,27.9412 0.49204,1.5388 1.76184,2.38019 2.21466,3.99274 1.69456,6.03454 1.78357,12.42138 4.3665,18.0428 1.36027,2.96054 5.6563,5.82536 6.345,9.02758 0.39064,1.81635 -0.97755,3.51045 -0.57643,5.38825 0.50417,2.36024 2.72043,3.59427 3.04242,6.05601 0.58755,4.49207 -1.68268,8.33847 2.93795,11.011 v 0.55053 c -13.19589,4.24523 -26.3056,8.85098 -39.8004,11.77398 -8.27951,1.79332 -16.80362,1.28804 -23.78875,7.49526 0.86437,4.30729 2.52778,9.94523 2.49953,14.31429 -0.0402,6.21792 -4.7994,12.46502 1.61777,16.51647 -0.92413,4.68428 0.45497,6.75355 4.11728,8.25824 -0.74547,5.19357 0.1585,10.59924 5.4897,10.46042 1.87185,9.34804 5.91094,7.01839 12.35185,6.05606 3.90685,-4.89028 13.16531,-13.62498 18.75651,-14.86483 l 2.74485,-2.20222 6.40467,-6.60659 h 0.45746 l 0.91496,1.10111 v -2.20219 l 7.31961,-4.95494 1.8299,-1.65164 0.45748,-1.65165 6.86214,-3.85387 c -10e-6,-2.63298 4.2422,0.31897 3.20233,1.10111 1.47166,2.89088 0.49905,6.60514 1.84297,9.14484 0.95139,1.79786 3.37031,1.98103 3.5772,4.40903 0.25906,3.04011 -1.71694,6.20206 -1.18782,9.01866 2.4499,13.04099 7.91242,24.80964 12.50682,36.88678 2.38877,6.27927 3.14542,15.49179 8.87948,18.71865 -0.35453,5.74361 5.95034,12.74114 8.28715,17.4604 0.90498,1.82767 0.63922,3.86675 1.90297,5.59173 1.46257,1.99639 4.20154,2.93948 5.35311,5.17668 1.00987,1.96195 0.28626,4.43698 1.59306,6.3403 1.18621,1.72762 3.36153,2.27023 4.35237,4.17797 0.91383,1.75941 0.16596,4.01594 1.20369,5.78795 0.88439,1.51014 2.56355,1.96876 3.37282,3.51355 1.22662,2.34154 0.24415,5.65755 1.39608,7.98976 1.1474,2.32304 3.74081,2.11972 5.27898,3.80754 1.36806,1.50118 0.9937,3.86791 1.80237,5.71028 1.0968,2.49874 3.19663,3.39959 5.25779,4.36361 -0.92496,2.96356 1.55166,10.62175 3.43565,12.97654 0.96517,1.20641 2.613,1.27933 3.41554,2.67543 1.88718,3.28298 1.7514,8.32438 3.82113,11.81559 1.27759,2.15503 3.60362,1.98673 4.84798,4.03948 1.87027,3.08528 2.14086,7.22488 4.0548,10.32403 1.22075,1.97674 3.56968,2.76131 4.41344,4.99743 1.78611,4.73346 2.41912,9.97583 5.1932,14.23064 1.7848,2.73748 4.49463,1.52232 6.12862,3.57941 2.60362,3.27778 3.44206,9.09261 5.72479,12.83169 1.68647,2.76242 5.11187,3.72075 6.40362,6.2948 2.45343,4.88875 2.28431,11.72624 4.61357,16.98542 0.78494,1.7723 2.14125,5.14831 4.19883,4.85811 2.00132,-0.28226 2.46063,-3.5107 2.70179,-5.40865 0.78339,-6.16518 1.4837,-12.50276 1.89133,-18.71865 h 0.45748 c 2.80398,11.97985 2.65856,24.6593 6.61221,36.33624 0.88942,2.62686 3.81268,10.20458 6.98463,8.96725 2.62305,-1.02324 1.14706,-9.20633 1.27925,-11.72001 0.66888,-12.71987 -1.15182,-25.76876 -1.15182,-38.53843 h 0.45748 c 1.54688,14.71816 4.23014,31.50629 10.20706,44.59444 1.645,3.60225 3.81738,7.04366 6.71954,9.29899 0.8946,0.69526 2.76173,2.06356 3.5165,0.41212 1.87,-4.09166 -2.35053,-15.28699 -3.15363,-19.62099 -3.10124,-16.73614 -6.92965,-34.52976 -7.22501,-51.75157 h 0.45748 c 5.71946,18.74414 8.12028,54.48674 30.19342,54.50433 -1.05478,-6.37887 -6.11265,-13.33268 -8.57911,-19.26919 -5.65502,-13.61111 -11.52675,-29.98876 -13.37974,-45.14502 h 0.45747 c 1.10433,4.6135 3.51592,8.60706 5.57618,12.6626 4.82034,9.48872 9.32094,18.71048 19.58498,18.71866 -1.28222,-5.55239 -5.93262,-10.95385 -8.41562,-15.9659 -5.72426,-11.55468 -11.18635,-23.43919 -15.63644,-35.78571 -3.70248,-10.27225 -6.10065,-21.0066 -9.54908,-31.3813 -2.83938,-8.54232 -7.02018,-16.70815 -9.61054,-25.27599 -5.60232,-18.53016 -9.51864,-38.07043 -18.30399,-55.10416 -3.8157,-7.39822 -9.70889,-13.87896 -14.08432,-20.92088 -11.92886,-19.19854 -22.56814,-40.97506 -27.44856,-64.41425 -3.92856,-18.86768 15.24123,-32.66595 20.45793,-48.44831 0.92605,-2.80157 5.47843,-6.35418 4.9034,-9.32748 -0.70717,-3.65654 -4.95221,-1.31058 -6.9458,-1.6355 -3.21341,-0.52365 -5.75626,-2.64408 -9.14951,-2.00762 -4.45522,0.83565 -8.24813,4.68953 -12.80933,4.69621 -10.43156,0.0157 -16.7713,-15.59229 -19.34141,-25.85968 -4.00988,-16.0192 -5.51453,-33.43591 -4.88681,-50.09995 0.26643,-7.07261 2.5587,-14.41823 2.22667,-21.47142 -0.66413,-14.1085 -4.16255,-26.67787 -6.99839,-40.19008 -1.24555,-5.93481 -1.13086,-12.61502 -2.20479,-18.71867 -2.1538,-12.24115 -5.14374,-23.86276 -6.57126,-36.33625 -1.62569,-14.20506 -2.08601,-28.66605 -2.89842,-42.94282 -0.36651,-6.44099 0.74686,-14.267369 -0.95589,-20.370326 -4.39692,2.75309 -6.67648,9.818619 -7.68037,15.415376 -2.47847,13.81777 0.36731,27.55421 1.27571,41.29119 h -0.45748 l -9.87033,-44.04393 -4.31141,-36.336244 c -5.88729,3.678099 -7.20876,12.578158 -7.85299,19.819769 -1.10433,12.4137 1.68896,26.741205 4.88787,38.538435 1.43738,5.30091 4.10787,10.44485 4.79501,15.96593 m -17.84155,303.35256 0.45747,0.55053 -0.45747,-0.55053 m 2.28738,7.7077 0.45748,0.55053 z"
         id="path13" /></clipPath></defs><g
     inkscape:groupmode="layer"
     id="layer2"
     inkscape:label="pride"><g
       id="g1"
       transform="matrix(0.77113971,0,0,0.64077435,-297.24396,108.06961)"
       clip-path="url(#clipPath3)"
       inkscape:export-filename="g1.png"
       inkscape:export-xdpi="384"
       inkscape:export-ydpi="384"><path
         fill="#6d2380"
         d="M 0,0 H 1200 V 762 H 0 Z"
         id="path1-4" /><path
         fill="#2c58a4"
         d="M 0,0 H 1200 V 635 H 0 Z"
         id="path2" /><path
         fill="#78b82a"
         d="M 0,0 H 1200 V 508 H 0 Z"
         id="path3" /><path
         fill="#efe524"
         d="M 0,0 H 1200 V 381 H 0 Z"
         id="path4" /><path
         fill="#f28917"
         d="M 0,0 H 1200 V 254 H 0 Z"
         id="path5" /><path
         fill="#e22016"
         d="M 0,0 H 1200 V 127 H 0 Z"
         id="path6" /><path
         d="M 315,0 H 0 V 762 H 315 L 668,381 Z"
         id="path7" /><path
         fill="#945516"
         d="M 241,0 H 0 V 762 H 241 L 594,381 Z"
         id="path8" /><path
         fill="#7bcce5"
         d="M 168,0 H 0 V 762 H 168 L 521,381 Z"
         id="path9" /><path
         fill="#f4aec8"
         d="M 95,0 H 0 V 762 H 95 L 448,381 Z"
         id="path10" /><path
         fill="#ffffff"
         d="M 0,0 V 762 H 22 L 374,381 22,0 Z"
         id="path11" /><path
         fill="#fdd817"
         d="M 0,706 301,381 0,55 Z"
         id="path12" /><circle
         cx="111"
         cy="381"
         r="80"
         fill="none"
         stroke="#66338b"
         stroke-width="19"
         id="circle12" /></g></g><g
     inkscape:label="Layer 1"
     inkscape:groupmode="layer"
     id="layer1" /></svg>
